<mxfile host="65bd71144e">
    <diagram id="migKeFc_42KSMQu3nTl5" name="Page-1">
        <mxGraphModel dx="1447" dy="1645" grid="1" gridSize="10" guides="1" tooltips="1" connect="1" arrows="1" fold="1" page="1" pageScale="1" pageWidth="827" pageHeight="1169" math="0" shadow="0">
            <root>
                <mxCell id="0"/>
                <mxCell id="1" parent="0"/>
                <mxCell id="41" value="" style="endArrow=classic;html=1;exitX=0.5;exitY=1;exitDx=0;exitDy=0;startArrow=diamondThin;startFill=1;endSize=6;startSize=18;entryX=0.5;entryY=0;entryDx=0;entryDy=0;" parent="1" source="69" target="250" edge="1">
                    <mxGeometry relative="1" as="geometry">
                        <mxPoint x="-232.94000000000005" y="-727" as="sourcePoint"/>
                        <mxPoint x="-230" y="-620" as="targetPoint"/>
                    </mxGeometry>
                </mxCell>
                <mxCell id="42" value="include" style="edgeLabel;resizable=0;html=1;align=center;verticalAlign=middle;" parent="41" connectable="0" vertex="1">
                    <mxGeometry relative="1" as="geometry">
                        <mxPoint y="-9" as="offset"/>
                    </mxGeometry>
                </mxCell>
                <mxCell id="43" value="1" style="edgeLabel;resizable=0;html=1;align=left;verticalAlign=bottom;" parent="41" connectable="0" vertex="1">
                    <mxGeometry x="-1" relative="1" as="geometry">
                        <mxPoint x="6" y="21" as="offset"/>
                    </mxGeometry>
                </mxCell>
                <mxCell id="44" value="1..*" style="edgeLabel;resizable=0;html=1;align=right;verticalAlign=bottom;" parent="41" connectable="0" vertex="1">
                    <mxGeometry x="1" relative="1" as="geometry">
                        <mxPoint x="-6" y="-5" as="offset"/>
                    </mxGeometry>
                </mxCell>
                <mxCell id="54" value="" style="endArrow=classic;html=1;entryX=-0.019;entryY=0.054;entryDx=0;entryDy=0;entryPerimeter=0;exitX=1;exitY=0.5;exitDx=0;exitDy=0;" parent="1" source="82" target="69" edge="1">
                    <mxGeometry relative="1" as="geometry">
                        <mxPoint x="-520" y="-1045" as="sourcePoint"/>
                        <mxPoint x="-305.03999999999996" y="-1042.84" as="targetPoint"/>
                    </mxGeometry>
                </mxCell>
                <mxCell id="55" value="contain" style="edgeLabel;resizable=0;html=1;align=center;verticalAlign=middle;" parent="54" connectable="0" vertex="1">
                    <mxGeometry relative="1" as="geometry">
                        <mxPoint x="-8" y="4" as="offset"/>
                    </mxGeometry>
                </mxCell>
                <mxCell id="56" value="1..*" style="edgeLabel;resizable=0;html=1;align=left;verticalAlign=bottom;" parent="54" connectable="0" vertex="1">
                    <mxGeometry x="-1" relative="1" as="geometry">
                        <mxPoint x="7" y="16" as="offset"/>
                    </mxGeometry>
                </mxCell>
                <mxCell id="57" value="&lt;font style=&quot;font-size: 16px;&quot;&gt;*&lt;/font&gt;" style="edgeLabel;resizable=0;html=1;align=right;verticalAlign=bottom;" parent="54" connectable="0" vertex="1">
                    <mxGeometry x="1" relative="1" as="geometry">
                        <mxPoint x="-7" y="24" as="offset"/>
                    </mxGeometry>
                </mxCell>
                <mxCell id="65" style="edgeStyle=none;html=1;exitX=1;exitY=0.5;exitDx=0;exitDy=0;entryX=0;entryY=0.5;entryDx=0;entryDy=0;fontSize=11;endArrow=block;endFill=0;" parent="1" source="87" edge="1">
                    <mxGeometry relative="1" as="geometry">
                        <mxPoint x="-607" y="-675" as="sourcePoint"/>
                        <mxPoint x="-290.0000000000002" y="-640" as="targetPoint"/>
                    </mxGeometry>
                </mxCell>
                <mxCell id="66" value="be" style="edgeLabel;html=1;align=center;verticalAlign=middle;resizable=0;points=[];fontSize=11;" parent="65" vertex="1" connectable="0">
                    <mxGeometry x="-0.0912" y="-2" relative="1" as="geometry">
                        <mxPoint x="9" y="2" as="offset"/>
                    </mxGeometry>
                </mxCell>
                <mxCell id="67" value="1" style="text;html=1;align=center;verticalAlign=middle;resizable=0;points=[];autosize=1;strokeColor=none;fillColor=none;fontSize=11;" parent="1" vertex="1">
                    <mxGeometry x="-605" y="-675" width="30" height="30" as="geometry"/>
                </mxCell>
                <mxCell id="69" value="Game" style="swimlane;fontStyle=1;align=center;verticalAlign=top;childLayout=stackLayout;horizontal=1;startSize=26;horizontalStack=0;resizeParent=1;resizeParentMax=0;resizeLast=0;collapsible=1;marginBottom=0;" parent="1" vertex="1">
                    <mxGeometry x="-300" y="-1060" width="160" height="294" as="geometry"/>
                </mxCell>
                <mxCell id="70" value="+ id: int" style="text;strokeColor=none;fillColor=none;align=left;verticalAlign=top;spacingLeft=4;spacingRight=4;overflow=hidden;rotatable=0;points=[[0,0.5],[1,0.5]];portConstraint=eastwest;" parent="69" vertex="1">
                    <mxGeometry y="26" width="160" height="26" as="geometry"/>
                </mxCell>
                <mxCell id="73" value="+ nbPlayer: int" style="text;strokeColor=none;fillColor=none;align=left;verticalAlign=top;spacingLeft=4;spacingRight=4;overflow=hidden;rotatable=0;points=[[0,0.5],[1,0.5]];portConstraint=eastwest;" parent="69" vertex="1">
                    <mxGeometry y="52" width="160" height="26" as="geometry"/>
                </mxCell>
                <mxCell id="74" value="+ dayLength: int" style="text;strokeColor=none;fillColor=none;align=left;verticalAlign=top;spacingLeft=4;spacingRight=4;overflow=hidden;rotatable=0;points=[[0,0.5],[1,0.5]];portConstraint=eastwest;" parent="69" vertex="1">
                    <mxGeometry y="78" width="160" height="26" as="geometry"/>
                </mxCell>
                <mxCell id="75" value="+ nightLength: int" style="text;strokeColor=none;fillColor=none;align=left;verticalAlign=top;spacingLeft=4;spacingRight=4;overflow=hidden;rotatable=0;points=[[0,0.5],[1,0.5]];portConstraint=eastwest;" parent="69" vertex="1">
                    <mxGeometry y="104" width="160" height="26" as="geometry"/>
                </mxCell>
                <mxCell id="76" value="+ startDate: int" style="text;strokeColor=none;fillColor=none;align=left;verticalAlign=top;spacingLeft=4;spacingRight=4;overflow=hidden;rotatable=0;points=[[0,0.5],[1,0.5]];portConstraint=eastwest;" parent="69" vertex="1">
                    <mxGeometry y="130" width="160" height="26" as="geometry"/>
                </mxCell>
                <mxCell id="77" value="+ percentageWerewolf: int" style="text;strokeColor=none;fillColor=none;align=left;verticalAlign=top;spacingLeft=4;spacingRight=4;overflow=hidden;rotatable=0;points=[[0,0.5],[1,0.5]];portConstraint=eastwest;" parent="69" vertex="1">
                    <mxGeometry y="156" width="160" height="26" as="geometry"/>
                </mxCell>
                <mxCell id="78" value="+ probaContamination: int" style="text;strokeColor=none;fillColor=none;align=left;verticalAlign=top;spacingLeft=4;spacingRight=4;overflow=hidden;rotatable=0;points=[[0,0.5],[1,0.5]];portConstraint=eastwest;" parent="69" vertex="1">
                    <mxGeometry y="182" width="160" height="26" as="geometry"/>
                </mxCell>
                <mxCell id="79" value="+ probaInsomnie: int" style="text;strokeColor=none;fillColor=none;align=left;verticalAlign=top;spacingLeft=4;spacingRight=4;overflow=hidden;rotatable=0;points=[[0,0.5],[1,0.5]];portConstraint=eastwest;" parent="69" vertex="1">
                    <mxGeometry y="208" width="160" height="26" as="geometry"/>
                </mxCell>
                <mxCell id="80" value="+ probaVoyance: int" style="text;strokeColor=none;fillColor=none;align=left;verticalAlign=top;spacingLeft=4;spacingRight=4;overflow=hidden;rotatable=0;points=[[0,0.5],[1,0.5]];portConstraint=eastwest;" parent="69" vertex="1">
                    <mxGeometry y="234" width="160" height="26" as="geometry"/>
                </mxCell>
                <mxCell id="81" value="+ ProbaSpiritisme: int" style="text;strokeColor=none;fillColor=none;align=left;verticalAlign=top;spacingLeft=4;spacingRight=4;overflow=hidden;rotatable=0;points=[[0,0.5],[1,0.5]];portConstraint=eastwest;" parent="69" vertex="1">
                    <mxGeometry y="260" width="160" height="26" as="geometry"/>
                </mxCell>
                <mxCell id="71" value="" style="line;strokeWidth=1;fillColor=none;align=left;verticalAlign=middle;spacingTop=-1;spacingLeft=3;spacingRight=3;rotatable=0;labelPosition=right;points=[];portConstraint=eastwest;strokeColor=inherit;" parent="69" vertex="1">
                    <mxGeometry y="286" width="160" height="8" as="geometry"/>
                </mxCell>
                <mxCell id="82" value="GameManager" style="swimlane;fontStyle=1;align=center;verticalAlign=top;childLayout=stackLayout;horizontal=1;startSize=26;horizontalStack=0;resizeParent=1;resizeParentMax=0;resizeLast=0;collapsible=1;marginBottom=0;" parent="1" vertex="1">
                    <mxGeometry x="-680" y="-1060" width="160" height="34" as="geometry">
                        <mxRectangle x="-40" y="-370" width="120" height="30" as="alternateBounds"/>
                    </mxGeometry>
                </mxCell>
                <mxCell id="84" value="" style="line;strokeWidth=1;fillColor=none;align=left;verticalAlign=middle;spacingTop=-1;spacingLeft=3;spacingRight=3;rotatable=0;labelPosition=right;points=[];portConstraint=eastwest;strokeColor=inherit;" parent="82" vertex="1">
                    <mxGeometry y="26" width="160" height="8" as="geometry"/>
                </mxCell>
                <mxCell id="164" style="edgeStyle=none;html=1;exitX=1;exitY=0.25;exitDx=0;exitDy=0;entryX=0;entryY=0.5;entryDx=0;entryDy=0;" parent="1" source="86" target="80" edge="1">
                    <mxGeometry relative="1" as="geometry"/>
                </mxCell>
                <mxCell id="165" value="gameList" style="edgeLabel;html=1;align=center;verticalAlign=middle;resizable=0;points=[];" parent="164" vertex="1" connectable="0">
                    <mxGeometry x="-0.2748" y="-1" relative="1" as="geometry">
                        <mxPoint as="offset"/>
                    </mxGeometry>
                </mxCell>
                <mxCell id="166" value="1..*" style="edgeLabel;html=1;align=center;verticalAlign=middle;resizable=0;points=[];" parent="164" vertex="1" connectable="0">
                    <mxGeometry x="-0.8527" y="-1" relative="1" as="geometry">
                        <mxPoint x="-13" y="-14" as="offset"/>
                    </mxGeometry>
                </mxCell>
                <mxCell id="167" value="0..*" style="edgeLabel;html=1;align=center;verticalAlign=middle;resizable=0;points=[];" parent="164" vertex="1" connectable="0">
                    <mxGeometry x="0.9132" y="-1" relative="1" as="geometry">
                        <mxPoint y="17" as="offset"/>
                    </mxGeometry>
                </mxCell>
                <mxCell id="86" value="User" style="swimlane;fontStyle=1;align=center;verticalAlign=top;childLayout=stackLayout;horizontal=1;startSize=26;horizontalStack=0;resizeParent=1;resizeParentMax=0;resizeLast=0;collapsible=1;marginBottom=0;" parent="1" vertex="1">
                    <mxGeometry x="-770" y="-720" width="160" height="78" as="geometry"/>
                </mxCell>
                <mxCell id="87" value="+ id: int&#10;+ password: string" style="text;strokeColor=none;fillColor=none;align=left;verticalAlign=top;spacingLeft=4;spacingRight=4;overflow=hidden;rotatable=0;points=[[0,0.5],[1,0.5]];portConstraint=eastwest;" parent="86" vertex="1">
                    <mxGeometry y="26" width="160" height="44" as="geometry"/>
                </mxCell>
                <mxCell id="88" value="" style="line;strokeWidth=1;fillColor=none;align=left;verticalAlign=middle;spacingTop=-1;spacingLeft=3;spacingRight=3;rotatable=0;labelPosition=right;points=[];portConstraint=eastwest;strokeColor=inherit;" parent="86" vertex="1">
                    <mxGeometry y="70" width="160" height="8" as="geometry"/>
                </mxCell>
                <mxCell id="112" value="Message" style="swimlane;fontStyle=0;align=center;verticalAlign=top;childLayout=stackLayout;horizontal=1;startSize=30;horizontalStack=0;resizeParent=1;resizeParentMax=0;resizeLast=0;collapsible=0;marginBottom=0;html=1;" parent="1" vertex="1">
                    <mxGeometry x="540" y="-1009" width="230" height="118" as="geometry"/>
                </mxCell>
                <mxCell id="114" value="- id: int&lt;br&gt;- Text: string&lt;br&gt;- Time: Date&lt;br&gt;- Sender: Player&amp;nbsp;" style="text;html=1;strokeColor=none;fillColor=none;align=left;verticalAlign=middle;spacingLeft=4;spacingRight=4;overflow=hidden;rotatable=0;points=[[0,0.5],[1,0.5]];portConstraint=eastwest;" parent="112" vertex="1">
                    <mxGeometry y="30" width="230" height="60" as="geometry"/>
                </mxCell>
                <mxCell id="117" value="" style="line;strokeWidth=1;fillColor=none;align=left;verticalAlign=middle;spacingTop=-1;spacingLeft=3;spacingRight=3;rotatable=0;labelPosition=right;points=[];portConstraint=eastwest;" parent="112" vertex="1">
                    <mxGeometry y="90" width="230" height="8" as="geometry"/>
                </mxCell>
                <mxCell id="119" value="+ Message(p: Player, Text: string)" style="text;html=1;strokeColor=none;fillColor=none;align=left;verticalAlign=middle;spacingLeft=4;spacingRight=4;overflow=hidden;rotatable=0;points=[[0,0.5],[1,0.5]];portConstraint=eastwest;" parent="112" vertex="1">
                    <mxGeometry y="98" width="230" height="20" as="geometry"/>
                </mxCell>
                <mxCell id="136" style="edgeStyle=none;html=1;exitX=1;exitY=0.5;exitDx=0;exitDy=0;startArrow=diamondThin;startFill=1;startSize=18;" parent="1" target="144" edge="1">
                    <mxGeometry relative="1" as="geometry">
                        <mxPoint x="-139.54000000000002" y="-945.22" as="sourcePoint"/>
                        <mxPoint x="270.00000000000045" y="-940.788" as="targetPoint"/>
                    </mxGeometry>
                </mxCell>
                <mxCell id="153" value="&lt;span style=&quot;font-size: 12px; background-color: rgb(42, 37, 47);&quot;&gt;chatWerewolf&lt;/span&gt;" style="edgeLabel;html=1;align=center;verticalAlign=middle;resizable=0;points=[];" parent="136" vertex="1" connectable="0">
                    <mxGeometry x="0.2865" y="-3" relative="1" as="geometry">
                        <mxPoint x="-64" y="-4" as="offset"/>
                    </mxGeometry>
                </mxCell>
                <mxCell id="148" style="edgeStyle=none;html=1;startArrow=diamondThin;startFill=1;startSize=18;" parent="1" source="144" target="114" edge="1">
                    <mxGeometry relative="1" as="geometry"/>
                </mxCell>
                <mxCell id="149" value="messages" style="edgeLabel;html=1;align=center;verticalAlign=middle;resizable=0;points=[];" parent="148" vertex="1" connectable="0">
                    <mxGeometry x="-0.0707" y="2" relative="1" as="geometry">
                        <mxPoint as="offset"/>
                    </mxGeometry>
                </mxCell>
                <mxCell id="150" value="1" style="edgeLabel;html=1;align=center;verticalAlign=middle;resizable=0;points=[];" parent="148" vertex="1" connectable="0">
                    <mxGeometry x="-0.7175" y="2" relative="1" as="geometry">
                        <mxPoint x="25" y="-1" as="offset"/>
                    </mxGeometry>
                </mxCell>
                <mxCell id="151" value="1..*" style="edgeLabel;html=1;align=center;verticalAlign=middle;resizable=0;points=[];" parent="148" vertex="1" connectable="0">
                    <mxGeometry x="0.7092" y="3" relative="1" as="geometry">
                        <mxPoint x="-33" y="-4" as="offset"/>
                    </mxGeometry>
                </mxCell>
                <mxCell id="144" value="&lt;b&gt;Chat&lt;/b&gt;" style="swimlane;fontStyle=0;align=center;verticalAlign=top;childLayout=stackLayout;horizontal=1;startSize=30;horizontalStack=0;resizeParent=1;resizeParentMax=0;resizeLast=0;collapsible=0;marginBottom=0;html=1;" parent="1" vertex="1">
                    <mxGeometry x="70" y="-1040" width="230" height="180" as="geometry"/>
                </mxCell>
                <mxCell id="145" value="id: int" style="text;html=1;strokeColor=none;fillColor=none;align=left;verticalAlign=middle;spacingLeft=4;spacingRight=4;overflow=hidden;rotatable=0;points=[[0,0.5],[1,0.5]];portConstraint=eastwest;" parent="144" vertex="1">
                    <mxGeometry y="30" width="230" height="20" as="geometry"/>
                </mxCell>
                <mxCell id="146" value="" style="line;strokeWidth=1;fillColor=none;align=left;verticalAlign=middle;spacingTop=-1;spacingLeft=3;spacingRight=3;rotatable=0;labelPosition=right;points=[];portConstraint=eastwest;" parent="144" vertex="1">
                    <mxGeometry y="50" width="230" height="8" as="geometry"/>
                </mxCell>
                <mxCell id="147" value="+ Chat (Players list): Chat&lt;br&gt;+ envoyerMessage(m: Message): void&lt;br&gt;+ isEmpty(): boolean&lt;br&gt;+ size(): int&lt;br&gt;+ getMessage(index: int): Message&lt;br&gt;+ excludePlayer(p: Player)" style="text;html=1;strokeColor=none;fillColor=none;align=left;verticalAlign=middle;spacingLeft=4;spacingRight=4;overflow=hidden;rotatable=0;points=[[0,0.5],[1,0.5]];portConstraint=eastwest;" parent="144" vertex="1">
                    <mxGeometry y="58" width="230" height="122" as="geometry"/>
                </mxCell>
                <mxCell id="155" style="edgeStyle=none;html=1;exitX=0.002;exitY=1.008;exitDx=0;exitDy=0;exitPerimeter=0;entryX=1;entryY=0;entryDx=0;entryDy=0;" parent="1" source="147" target="250" edge="1">
                    <mxGeometry relative="1" as="geometry"/>
                </mxCell>
                <mxCell id="157" value="players" style="edgeLabel;html=1;align=center;verticalAlign=middle;resizable=0;points=[];" parent="155" vertex="1" connectable="0">
                    <mxGeometry x="-0.0067" y="2" relative="1" as="geometry">
                        <mxPoint y="-1" as="offset"/>
                    </mxGeometry>
                </mxCell>
                <mxCell id="159" value="1..*" style="edgeLabel;html=1;align=center;verticalAlign=middle;resizable=0;points=[];" parent="155" vertex="1" connectable="0">
                    <mxGeometry x="-0.9088" relative="1" as="geometry">
                        <mxPoint x="11" y="8" as="offset"/>
                    </mxGeometry>
                </mxCell>
                <mxCell id="160" value="1..*" style="edgeLabel;html=1;align=center;verticalAlign=middle;resizable=0;points=[];" parent="155" vertex="1" connectable="0">
                    <mxGeometry x="0.9233" y="1" relative="1" as="geometry">
                        <mxPoint x="-13" y="-14" as="offset"/>
                    </mxGeometry>
                </mxCell>
                <mxCell id="161" value="&lt;span style=&quot;font-size: 12px; background-color: rgb(42, 37, 47);&quot;&gt;chatVillagers&lt;/span&gt;" style="edgeStyle=none;html=1;exitX=1.002;exitY=0.259;exitDx=0;exitDy=0;entryX=0;entryY=0.5;entryDx=0;entryDy=0;exitPerimeter=0;startArrow=diamondThin;startFill=1;startSize=18;" parent="1" source="73" target="145" edge="1">
                    <mxGeometry relative="1" as="geometry"/>
                </mxCell>
                <mxCell id="162" style="edgeStyle=none;html=1;exitX=1;exitY=0.5;exitDx=0;exitDy=0;entryX=-0.006;entryY=0.751;entryDx=0;entryDy=0;entryPerimeter=0;startArrow=diamondThin;startFill=1;startSize=18;" parent="1" source="77" target="147" edge="1">
                    <mxGeometry relative="1" as="geometry"/>
                </mxCell>
                <mxCell id="163" value="&lt;span style=&quot;font-size: 12px; background-color: rgb(42, 37, 47);&quot;&gt;chatSpiritist&lt;/span&gt;" style="edgeLabel;html=1;align=center;verticalAlign=middle;resizable=0;points=[];" parent="162" vertex="1" connectable="0">
                    <mxGeometry x="-0.1157" y="2" relative="1" as="geometry">
                        <mxPoint x="19" y="2" as="offset"/>
                    </mxGeometry>
                </mxCell>
                <mxCell id="281" value="0..*" style="edgeLabel;html=1;align=center;verticalAlign=middle;resizable=0;points=[];" parent="162" vertex="1" connectable="0">
                    <mxGeometry x="0.9062" relative="1" as="geometry">
                        <mxPoint y="-10" as="offset"/>
                    </mxGeometry>
                </mxCell>
                <mxCell id="365" style="edgeStyle=orthogonalEdgeStyle;rounded=0;jumpStyle=arc;jumpSize=16;html=1;entryX=1;entryY=0.5;entryDx=0;entryDy=0;startArrow=none;startFill=0;endArrow=block;endFill=0;startSize=18;endSize=6;elbow=vertical;" parent="1" source="220" target="318" edge="1">
                    <mxGeometry relative="1" as="geometry"/>
                </mxCell>
                <mxCell id="367" style="edgeStyle=orthogonalEdgeStyle;rounded=0;jumpStyle=arc;jumpSize=16;html=1;entryX=1;entryY=0.5;entryDx=0;entryDy=0;startArrow=none;startFill=0;endArrow=block;endFill=0;startSize=18;endSize=6;elbow=vertical;" parent="1" source="220" target="311" edge="1">
                    <mxGeometry relative="1" as="geometry"/>
                </mxCell>
                <mxCell id="434" style="edgeStyle=none;html=1;exitX=0.25;exitY=0;exitDx=0;exitDy=0;entryX=0.5;entryY=1;entryDx=0;entryDy=0;" parent="1" source="220" target="403" edge="1">
                    <mxGeometry relative="1" as="geometry"/>
                </mxCell>
                <mxCell id="220" value="&lt;b&gt;Clairvoyant&lt;/b&gt;" style="swimlane;fontStyle=0;align=center;verticalAlign=top;childLayout=stackLayout;horizontal=1;startSize=30;horizontalStack=0;resizeParent=1;resizeParentMax=0;resizeLast=0;collapsible=0;marginBottom=0;html=1;" parent="1" vertex="1">
                    <mxGeometry x="434" y="-515.5" width="140" height="58" as="geometry"/>
                </mxCell>
                <mxCell id="225" value="" style="line;strokeWidth=1;fillColor=none;align=left;verticalAlign=middle;spacingTop=-1;spacingLeft=3;spacingRight=3;rotatable=0;labelPosition=right;points=[];portConstraint=eastwest;" parent="220" vertex="1">
                    <mxGeometry y="30" width="140" height="8" as="geometry"/>
                </mxCell>
                <mxCell id="227" value="+usePower(Player)" style="text;html=1;strokeColor=none;fillColor=none;align=left;verticalAlign=middle;spacingLeft=4;spacingRight=4;overflow=hidden;rotatable=0;points=[[0,0.5],[1,0.5]];portConstraint=eastwest;" parent="220" vertex="1">
                    <mxGeometry y="38" width="140" height="20" as="geometry"/>
                </mxCell>
                <mxCell id="246" style="rounded=0;elbow=vertical;html=1;startArrow=diamondThin;startFill=1;endArrow=none;endFill=0;startSize=18;endSize=6;" parent="1" source="250" target="354" edge="1">
                    <mxGeometry relative="1" as="geometry">
                        <mxPoint x="-190" y="-440" as="targetPoint"/>
                    </mxGeometry>
                </mxCell>
                <mxCell id="250" value="&lt;b&gt;Player&lt;br&gt;&lt;/b&gt;" style="swimlane;fontStyle=0;align=center;verticalAlign=top;childLayout=stackLayout;horizontal=1;startSize=30;horizontalStack=0;resizeParent=1;resizeParentMax=0;resizeLast=0;collapsible=0;marginBottom=0;html=1;strokeColor=default;" parent="1" vertex="1">
                    <mxGeometry x="-290" y="-670" width="170" height="150" as="geometry"/>
                </mxCell>
                <mxCell id="252" value="isAlive: Boolean" style="text;html=1;strokeColor=none;fillColor=none;align=left;verticalAlign=middle;spacingLeft=4;spacingRight=4;overflow=hidden;rotatable=0;points=[[0,0.5],[1,0.5]];portConstraint=eastwest;" parent="250" vertex="1">
                    <mxGeometry y="30" width="170" height="30" as="geometry"/>
                </mxCell>
                <mxCell id="255" value="" style="line;strokeWidth=1;fillColor=none;align=left;verticalAlign=middle;spacingTop=-1;spacingLeft=3;spacingRight=3;rotatable=0;labelPosition=right;points=[];portConstraint=eastwest;strokeColor=default;" parent="250" vertex="1">
                    <mxGeometry y="60" width="170" height="8" as="geometry"/>
                </mxCell>
                <mxCell id="257" value="+ getUser():User&lt;br&gt;+ getRole():Villager&lt;br&gt;+ setRole():Villager&lt;br&gt;+ sendNewGameStatus():void&lt;br&gt;+ schema():void" style="text;html=1;strokeColor=none;fillColor=none;align=left;verticalAlign=middle;spacingLeft=4;spacingRight=4;overflow=hidden;rotatable=0;points=[[0,0.5],[1,0.5]];portConstraint=eastwest;" parent="250" vertex="1">
                    <mxGeometry y="68" width="170" height="82" as="geometry"/>
                </mxCell>
                <mxCell id="370" style="edgeStyle=orthogonalEdgeStyle;rounded=0;jumpStyle=none;jumpSize=16;html=1;entryX=1;entryY=0.5;entryDx=0;entryDy=0;startArrow=none;startFill=0;endArrow=block;endFill=0;startSize=18;endSize=6;elbow=vertical;" parent="1" source="285" target="318" edge="1">
                    <mxGeometry relative="1" as="geometry"/>
                </mxCell>
                <mxCell id="371" style="edgeStyle=orthogonalEdgeStyle;rounded=0;jumpStyle=none;jumpSize=16;html=1;entryX=1;entryY=0.5;entryDx=0;entryDy=0;startArrow=none;startFill=0;endArrow=block;endFill=0;startSize=18;endSize=6;elbow=vertical;" parent="1" source="285" target="311" edge="1">
                    <mxGeometry relative="1" as="geometry"/>
                </mxCell>
                <mxCell id="435" style="edgeStyle=none;html=1;exitX=0.25;exitY=0;exitDx=0;exitDy=0;entryX=1;entryY=0.5;entryDx=0;entryDy=0;" parent="1" source="285" target="406" edge="1">
                    <mxGeometry relative="1" as="geometry"/>
                </mxCell>
                <mxCell id="285" value="&lt;b class=&quot;b5&quot;&gt;Spiritism&lt;/b&gt;" style="swimlane;fontStyle=0;align=center;verticalAlign=top;childLayout=stackLayout;horizontal=1;startSize=30;horizontalStack=0;resizeParent=1;resizeParentMax=0;resizeLast=0;collapsible=0;marginBottom=0;html=1;" parent="1" vertex="1">
                    <mxGeometry x="630" y="-515.5" width="140" height="90" as="geometry"/>
                </mxCell>
                <mxCell id="287" value="-&amp;nbsp;&lt;span style=&quot;text-align: center;&quot;&gt;chatSpiritist&lt;/span&gt;: Chat" style="text;html=1;strokeColor=none;fillColor=none;align=left;verticalAlign=middle;spacingLeft=4;spacingRight=4;overflow=hidden;rotatable=0;points=[[0,0.5],[1,0.5]];portConstraint=eastwest;" parent="285" vertex="1">
                    <mxGeometry y="30" width="140" height="20" as="geometry"/>
                </mxCell>
                <mxCell id="290" value="" style="line;strokeWidth=1;fillColor=none;align=left;verticalAlign=middle;spacingTop=-1;spacingLeft=3;spacingRight=3;rotatable=0;labelPosition=right;points=[];portConstraint=eastwest;" parent="285" vertex="1">
                    <mxGeometry y="50" width="140" height="8" as="geometry"/>
                </mxCell>
                <mxCell id="292" value="+ usePower(Player)&lt;br&gt;- createChat()" style="text;html=1;strokeColor=none;fillColor=none;align=left;verticalAlign=middle;spacingLeft=4;spacingRight=4;overflow=hidden;rotatable=0;points=[[0,0.5],[1,0.5]];portConstraint=eastwest;" parent="285" vertex="1">
                    <mxGeometry y="58" width="140" height="32" as="geometry"/>
                </mxCell>
                <mxCell id="400" style="edgeStyle=orthogonalEdgeStyle;rounded=0;jumpStyle=none;jumpSize=16;html=1;startArrow=diamondThin;startFill=1;endArrow=none;endFill=0;startSize=18;endSize=6;elbow=vertical;entryX=1;entryY=0.5;entryDx=0;entryDy=0;exitX=0;exitY=0.5;exitDx=0;exitDy=0;" parent="1" source="311" target="387" edge="1">
                    <mxGeometry relative="1" as="geometry">
                        <mxPoint x="140" y="-640" as="targetPoint"/>
                    </mxGeometry>
                </mxCell>
                <mxCell id="401" value="power" style="edgeLabel;html=1;align=center;verticalAlign=middle;resizable=0;points=[];" parent="400" vertex="1" connectable="0">
                    <mxGeometry x="0.0973" y="3" relative="1" as="geometry">
                        <mxPoint x="-7" y="-2" as="offset"/>
                    </mxGeometry>
                </mxCell>
                <mxCell id="309" value="&amp;lt;&amp;lt;Interface&amp;gt;&amp;gt;&lt;br&gt;&lt;b&gt;HumanPower&lt;/b&gt;" style="swimlane;fontStyle=0;align=center;verticalAlign=top;childLayout=stackLayout;horizontal=1;startSize=40;horizontalStack=0;resizeParent=1;resizeParentMax=0;resizeLast=0;collapsible=0;marginBottom=0;html=1;strokeColor=default;" parent="1" vertex="1">
                    <mxGeometry x="214" y="-671.5" width="140" height="88" as="geometry"/>
                </mxCell>
                <mxCell id="311" value="&amp;nbsp;" style="text;html=1;strokeColor=none;fillColor=none;align=left;verticalAlign=middle;spacingLeft=4;spacingRight=4;overflow=hidden;rotatable=0;points=[[0,0.5],[1,0.5]];portConstraint=eastwest;" parent="309" vertex="1">
                    <mxGeometry y="40" width="140" height="20" as="geometry"/>
                </mxCell>
                <mxCell id="314" value="" style="line;strokeWidth=1;fillColor=none;align=left;verticalAlign=middle;spacingTop=-1;spacingLeft=3;spacingRight=3;rotatable=0;labelPosition=right;points=[];portConstraint=eastwest;strokeColor=default;" parent="309" vertex="1">
                    <mxGeometry y="60" width="140" height="8" as="geometry"/>
                </mxCell>
                <mxCell id="316" value="&amp;nbsp;" style="text;html=1;strokeColor=none;fillColor=none;align=left;verticalAlign=middle;spacingLeft=4;spacingRight=4;overflow=hidden;rotatable=0;points=[[0,0.5],[1,0.5]];portConstraint=eastwest;" parent="309" vertex="1">
                    <mxGeometry y="68" width="140" height="20" as="geometry"/>
                </mxCell>
                <mxCell id="317" value="&amp;lt;&amp;lt;Interface&amp;gt;&amp;gt;&lt;br&gt;&lt;b&gt;WerewolfPower&lt;/b&gt;" style="swimlane;fontStyle=0;align=center;verticalAlign=top;childLayout=stackLayout;horizontal=1;startSize=40;horizontalStack=0;resizeParent=1;resizeParentMax=0;resizeLast=0;collapsible=0;marginBottom=0;html=1;strokeColor=default;" parent="1" vertex="1">
                    <mxGeometry x="214" y="-384.5" width="140" height="88" as="geometry"/>
                </mxCell>
                <mxCell id="318" value="&lt;div style=&quot;text-align: center;&quot;&gt;&lt;span style=&quot;background-color: initial;&quot;&gt;&amp;nbsp;&lt;/span&gt;&lt;/div&gt;" style="text;html=1;strokeColor=none;fillColor=none;align=left;verticalAlign=middle;spacingLeft=4;spacingRight=4;overflow=hidden;rotatable=0;points=[[0,0.5],[1,0.5]];portConstraint=eastwest;" parent="317" vertex="1">
                    <mxGeometry y="40" width="140" height="20" as="geometry"/>
                </mxCell>
                <mxCell id="319" value="" style="line;strokeWidth=1;fillColor=none;align=left;verticalAlign=middle;spacingTop=-1;spacingLeft=3;spacingRight=3;rotatable=0;labelPosition=right;points=[];portConstraint=eastwest;strokeColor=default;" parent="317" vertex="1">
                    <mxGeometry y="60" width="140" height="8" as="geometry"/>
                </mxCell>
                <mxCell id="320" value="operation1" style="text;html=1;strokeColor=none;fillColor=none;align=left;verticalAlign=middle;spacingLeft=4;spacingRight=4;overflow=hidden;rotatable=0;points=[[0,0.5],[1,0.5]];portConstraint=eastwest;" parent="317" vertex="1">
                    <mxGeometry y="68" width="140" height="20" as="geometry"/>
                </mxCell>
                <mxCell id="354" value="&amp;lt;&amp;lt;Abstract&amp;gt;&amp;gt;&lt;br&gt;&lt;b&gt;Villager&lt;/b&gt;" style="swimlane;fontStyle=0;align=center;verticalAlign=top;childLayout=stackLayout;horizontal=1;startSize=40;horizontalStack=0;resizeParent=1;resizeParentMax=0;resizeLast=0;collapsible=0;marginBottom=0;html=1;strokeColor=default;" parent="1" vertex="1">
                    <mxGeometry x="-290" y="-380" width="160" height="130" as="geometry"/>
                </mxCell>
                <mxCell id="355" value="variable..." style="text;html=1;strokeColor=none;fillColor=none;align=left;verticalAlign=middle;spacingLeft=4;spacingRight=4;overflow=hidden;rotatable=0;points=[[0,0.5],[1,0.5]];portConstraint=eastwest;" parent="354" vertex="1">
                    <mxGeometry y="40" width="160" height="20" as="geometry"/>
                </mxCell>
                <mxCell id="356" value="" style="line;strokeWidth=1;fillColor=none;align=left;verticalAlign=middle;spacingTop=-1;spacingLeft=3;spacingRight=3;rotatable=0;labelPosition=right;points=[];portConstraint=eastwest;strokeColor=default;" parent="354" vertex="1">
                    <mxGeometry y="60" width="160" height="8" as="geometry"/>
                </mxCell>
                <mxCell id="357" value="+ getRoleValue(): number&lt;br&gt;+ load(type:number):Villager&lt;br&gt;+ getPower():Power&lt;br&gt;+ setPower(Power):void" style="text;html=1;strokeColor=none;fillColor=none;align=left;verticalAlign=middle;spacingLeft=4;spacingRight=4;overflow=hidden;rotatable=0;points=[[0,0.5],[1,0.5]];portConstraint=eastwest;" parent="354" vertex="1">
                    <mxGeometry y="68" width="160" height="62" as="geometry"/>
                </mxCell>
                <mxCell id="377" style="edgeStyle=orthogonalEdgeStyle;rounded=0;jumpStyle=none;jumpSize=16;html=1;entryX=1;entryY=0.5;entryDx=0;entryDy=0;startArrow=none;startFill=0;endArrow=block;endFill=0;startSize=18;endSize=6;elbow=vertical;" parent="1" source="374" target="318" edge="1">
                    <mxGeometry relative="1" as="geometry"/>
                </mxCell>
                <mxCell id="436" style="edgeStyle=none;html=1;exitX=0.25;exitY=0;exitDx=0;exitDy=0;entryX=0.876;entryY=1;entryDx=0;entryDy=0;entryPerimeter=0;" parent="1" source="374" target="406" edge="1">
                    <mxGeometry relative="1" as="geometry"/>
                </mxCell>
                <mxCell id="374" value="&lt;b class=&quot;b5&quot;&gt;Contamination&lt;/b&gt;&lt;b class=&quot;b4&quot;&gt;&lt;/b&gt;" style="swimlane;fontStyle=0;align=center;verticalAlign=top;childLayout=stackLayout;horizontal=1;startSize=30;horizontalStack=0;resizeParent=1;resizeParentMax=0;resizeLast=0;collapsible=0;marginBottom=0;html=1;" parent="1" vertex="1">
                    <mxGeometry x="630" y="-287" width="140" height="58" as="geometry"/>
                </mxCell>
                <mxCell id="375" value="" style="line;strokeWidth=1;fillColor=none;align=left;verticalAlign=middle;spacingTop=-1;spacingLeft=3;spacingRight=3;rotatable=0;labelPosition=right;points=[];portConstraint=eastwest;" parent="374" vertex="1">
                    <mxGeometry y="30" width="140" height="8" as="geometry"/>
                </mxCell>
                <mxCell id="376" value="+usePower(Player)" style="text;html=1;strokeColor=none;fillColor=none;align=left;verticalAlign=middle;spacingLeft=4;spacingRight=4;overflow=hidden;rotatable=0;points=[[0,0.5],[1,0.5]];portConstraint=eastwest;" parent="374" vertex="1">
                    <mxGeometry y="38" width="140" height="20" as="geometry"/>
                </mxCell>
                <mxCell id="381" style="edgeStyle=orthogonalEdgeStyle;rounded=0;jumpStyle=none;jumpSize=16;html=1;entryX=1;entryY=0.5;entryDx=0;entryDy=0;startArrow=none;startFill=0;endArrow=block;endFill=0;startSize=18;endSize=6;elbow=vertical;" parent="1" source="378" target="311" edge="1">
                    <mxGeometry relative="1" as="geometry"/>
                </mxCell>
                <mxCell id="437" style="edgeStyle=none;html=1;exitX=0;exitY=0.25;exitDx=0;exitDy=0;entryX=1;entryY=0.25;entryDx=0;entryDy=0;" parent="1" source="378" target="403" edge="1">
                    <mxGeometry relative="1" as="geometry"/>
                </mxCell>
                <mxCell id="378" value="&lt;strong&gt;Insomnia&lt;br&gt;&lt;/strong&gt;" style="swimlane;fontStyle=0;align=center;verticalAlign=top;childLayout=stackLayout;horizontal=1;startSize=30;horizontalStack=0;resizeParent=1;resizeParentMax=0;resizeLast=0;collapsible=0;marginBottom=0;html=1;" parent="1" vertex="1">
                    <mxGeometry x="630" y="-720" width="140" height="58" as="geometry"/>
                </mxCell>
                <mxCell id="379" value="" style="line;strokeWidth=1;fillColor=none;align=left;verticalAlign=middle;spacingTop=-1;spacingLeft=3;spacingRight=3;rotatable=0;labelPosition=right;points=[];portConstraint=eastwest;" parent="378" vertex="1">
                    <mxGeometry y="30" width="140" height="8" as="geometry"/>
                </mxCell>
                <mxCell id="380" value="+usePower()" style="text;html=1;strokeColor=none;fillColor=none;align=left;verticalAlign=middle;spacingLeft=4;spacingRight=4;overflow=hidden;rotatable=0;points=[[0,0.5],[1,0.5]];portConstraint=eastwest;" parent="378" vertex="1">
                    <mxGeometry y="38" width="140" height="20" as="geometry"/>
                </mxCell>
                <mxCell id="382" value="&lt;b&gt;Werewolf&lt;/b&gt;" style="swimlane;fontStyle=0;align=center;verticalAlign=top;childLayout=stackLayout;horizontal=1;startSize=40;horizontalStack=0;resizeParent=1;resizeParentMax=0;resizeLast=0;collapsible=0;marginBottom=0;html=1;strokeColor=default;" parent="1" vertex="1">
                    <mxGeometry x="-30" y="-384.5" width="140" height="88" as="geometry"/>
                </mxCell>
                <mxCell id="383" value="&lt;div style=&quot;text-align: center;&quot;&gt;&lt;span style=&quot;background-color: initial;&quot;&gt;ccc&lt;/span&gt;&lt;/div&gt;" style="text;html=1;strokeColor=none;fillColor=none;align=left;verticalAlign=middle;spacingLeft=4;spacingRight=4;overflow=hidden;rotatable=0;points=[[0,0.5],[1,0.5]];portConstraint=eastwest;" parent="382" vertex="1">
                    <mxGeometry y="40" width="140" height="20" as="geometry"/>
                </mxCell>
                <mxCell id="384" value="" style="line;strokeWidth=1;fillColor=none;align=left;verticalAlign=middle;spacingTop=-1;spacingLeft=3;spacingRight=3;rotatable=0;labelPosition=right;points=[];portConstraint=eastwest;strokeColor=default;" parent="382" vertex="1">
                    <mxGeometry y="60" width="140" height="8" as="geometry"/>
                </mxCell>
                <mxCell id="385" value="operation1" style="text;html=1;strokeColor=none;fillColor=none;align=left;verticalAlign=middle;spacingLeft=4;spacingRight=4;overflow=hidden;rotatable=0;points=[[0,0.5],[1,0.5]];portConstraint=eastwest;" parent="382" vertex="1">
                    <mxGeometry y="68" width="140" height="20" as="geometry"/>
                </mxCell>
                <mxCell id="398" style="edgeStyle=orthogonalEdgeStyle;rounded=0;jumpStyle=none;jumpSize=16;html=1;startArrow=none;startFill=0;endArrow=block;endFill=0;startSize=18;endSize=6;elbow=vertical;" parent="1" source="386" target="355" edge="1">
                    <mxGeometry relative="1" as="geometry">
                        <mxPoint x="-130" y="-360" as="targetPoint"/>
                        <Array as="points">
                            <mxPoint x="-90" y="-621"/>
                            <mxPoint x="-90" y="-334"/>
                        </Array>
                    </mxGeometry>
                </mxCell>
                <mxCell id="386" value="&lt;b&gt;Human&lt;/b&gt;" style="swimlane;fontStyle=0;align=center;verticalAlign=top;childLayout=stackLayout;horizontal=1;startSize=22;horizontalStack=0;resizeParent=1;resizeParentMax=0;resizeLast=0;collapsible=0;marginBottom=0;html=1;strokeColor=default;" parent="1" vertex="1">
                    <mxGeometry x="-30" y="-654" width="140" height="70" as="geometry"/>
                </mxCell>
                <mxCell id="387" value="ccc" style="text;html=1;strokeColor=none;fillColor=none;align=left;verticalAlign=middle;spacingLeft=4;spacingRight=4;overflow=hidden;rotatable=0;points=[[0,0.5],[1,0.5]];portConstraint=eastwest;" parent="386" vertex="1">
                    <mxGeometry y="22" width="140" height="20" as="geometry"/>
                </mxCell>
                <mxCell id="388" value="" style="line;strokeWidth=1;fillColor=none;align=left;verticalAlign=middle;spacingTop=-1;spacingLeft=3;spacingRight=3;rotatable=0;labelPosition=right;points=[];portConstraint=eastwest;strokeColor=default;" parent="386" vertex="1">
                    <mxGeometry y="42" width="140" height="8" as="geometry"/>
                </mxCell>
                <mxCell id="389" value="cccc" style="text;html=1;strokeColor=none;fillColor=none;align=left;verticalAlign=middle;spacingLeft=4;spacingRight=4;overflow=hidden;rotatable=0;points=[[0,0.5],[1,0.5]];portConstraint=eastwest;" parent="386" vertex="1">
                    <mxGeometry y="50" width="140" height="20" as="geometry"/>
                </mxCell>
                <mxCell id="390" style="edgeStyle=orthogonalEdgeStyle;rounded=0;jumpStyle=none;jumpSize=16;html=1;entryX=1;entryY=0.5;entryDx=0;entryDy=0;startArrow=none;startFill=0;endArrow=block;endFill=0;startSize=18;endSize=6;elbow=vertical;" parent="1" source="383" target="355" edge="1">
                    <mxGeometry relative="1" as="geometry"/>
                </mxCell>
                <mxCell id="399" style="edgeStyle=orthogonalEdgeStyle;rounded=0;jumpStyle=none;jumpSize=16;html=1;entryX=1;entryY=0.5;entryDx=0;entryDy=0;startArrow=diamondThin;startFill=1;endArrow=none;endFill=0;startSize=18;endSize=6;elbow=vertical;" parent="1" source="318" target="383" edge="1">
                    <mxGeometry relative="1" as="geometry"/>
                </mxCell>
                <mxCell id="402" value="power" style="edgeLabel;html=1;align=center;verticalAlign=middle;resizable=0;points=[];" parent="399" vertex="1" connectable="0">
                    <mxGeometry x="0.0288" y="1" relative="1" as="geometry">
                        <mxPoint x="-11" y="-1" as="offset"/>
                    </mxGeometry>
                </mxCell>
                <mxCell id="403" value="&amp;lt;&amp;lt;Abstract&amp;gt;&amp;gt;&lt;br&gt;&lt;b&gt;Power&lt;/b&gt;" style="swimlane;fontStyle=0;align=center;verticalAlign=top;childLayout=stackLayout;horizontal=1;startSize=40;horizontalStack=0;resizeParent=1;resizeParentMax=0;resizeLast=0;collapsible=0;marginBottom=0;html=1;strokeColor=default;" parent="1" vertex="1">
                    <mxGeometry x="400" y="-800" width="140" height="88" as="geometry"/>
                </mxCell>
                <mxCell id="404" value="&amp;nbsp;" style="text;html=1;strokeColor=none;fillColor=none;align=left;verticalAlign=middle;spacingLeft=4;spacingRight=4;overflow=hidden;rotatable=0;points=[[0,0.5],[1,0.5]];portConstraint=eastwest;" parent="403" vertex="1">
                    <mxGeometry y="40" width="140" height="20" as="geometry"/>
                </mxCell>
                <mxCell id="405" value="" style="line;strokeWidth=1;fillColor=none;align=left;verticalAlign=middle;spacingTop=-1;spacingLeft=3;spacingRight=3;rotatable=0;labelPosition=right;points=[];portConstraint=eastwest;strokeColor=default;" parent="403" vertex="1">
                    <mxGeometry y="60" width="140" height="8" as="geometry"/>
                </mxCell>
                <mxCell id="406" value="&amp;nbsp;" style="text;html=1;strokeColor=none;fillColor=none;align=left;verticalAlign=middle;spacingLeft=4;spacingRight=4;overflow=hidden;rotatable=0;points=[[0,0.5],[1,0.5]];portConstraint=eastwest;" parent="403" vertex="1">
                    <mxGeometry y="68" width="140" height="20" as="geometry"/>
                </mxCell>
                <mxCell id="431" style="edgeStyle=none;html=1;strokeColor=#330000;endArrow=block;endFill=0;fillColor=#f8cecc;gradientColor=#ea6b66;exitX=0.5;exitY=0;exitDx=0;exitDy=0;" parent="1" source="317" target="406" edge="1">
                    <mxGeometry relative="1" as="geometry">
                        <mxPoint x="296.7216494845361" y="-573.5" as="sourcePoint"/>
                        <mxPoint x="300" y="-520.5" as="targetPoint"/>
                    </mxGeometry>
                </mxCell>
                <mxCell id="433" value="1..*" style="edgeLabel;resizable=0;html=1;align=right;verticalAlign=bottom;" parent="1" connectable="0" vertex="1">
                    <mxGeometry x="-179.99555169092997" y="-500.00353082195124" as="geometry">
                        <mxPoint x="5" as="offset"/>
                    </mxGeometry>
                </mxCell>
            </root>
        </mxGraphModel>
    </diagram>
</mxfile>